<?xml version="1.0" standalone="no"?><!DOCTYPE svg PUBLIC "-//W3C//DTD SVG 1.1//EN" "http://www.w3.org/Graphics/SVG/1.1/DTD/svg11.dtd"><svg t="1753360529607" class="icon" viewBox="0 0 1024 1024" version="1.1" xmlns="http://www.w3.org/2000/svg" p-id="24451" xmlns:xlink="http://www.w3.org/1999/xlink" width="200" height="200"><path d="M108.1 540.8L33.6 411H0l109.6 193.9 91-164.1H314v-30.6l-132 0.8-73.9 129.8z m0 0" fill="#060606" p-id="24452"></path><path d="M183.5 596H314v-31.3h-99.9v-45.5H314v-30.6H183.5V596z m296.8-144s-7.4-32.1-40.3-40.3c0 0-111.1-0.7-111.9 0v182.7h29.8v-78.3h61.2l44.7 79.8H493l-44.7-81.3c-0.1 0.1 42.4-18.6 32-62.6z m-47.7 31.3H361v-41h72.3c6.2 1.9 11.2 6.6 13.4 12.7 8.2 18.7-14.1 28.3-14.1 28.3z m60.4-42.5h41v155.9h30.6V440.1H625v-27.6H471.4c14.1 9 20.8 28.3 21.6 28.3z m144.7-29h30.6v182.7h-30.6V411.8z m190.9 124.5s-42.5 61.9-100.7 9.7c0 0-28.3-30.6-7.4-72.3-0.7-1.5 40.3-70.8 105.9-7.4l17.2-26.8s-50.7-58.2-120.8-14.9c0 0-57.4 30.6-38.8 105.9 0 0 19.3 64.1 87.3 67.9 0 0 51.5 10.4 89.5-51.5l47-80.6L986 596.8h38L908.4 405.9l-79.8 130.4z m0 0" fill="#060606" p-id="24453"></path></svg>