<?xml version="1.0" standalone="no"?><!DOCTYPE svg PUBLIC "-//W3C//DTD SVG 1.1//EN" "http://www.w3.org/Graphics/SVG/1.1/DTD/svg11.dtd"><svg t="1753363126520" class="icon" viewBox="0 0 3675 1024" version="1.1" xmlns="http://www.w3.org/2000/svg" p-id="21354" xmlns:xlink="http://www.w3.org/1999/xlink" width="717.7734375" height="200"><path d="M346.532103 463.084308a224.413538 224.413538 0 0 0 153.258666-213.228308c0-124.061538-100.982154-224.518564-224.518564-224.518564H0v661.766564h149.661538v-221.446564h29.748513l159.428923 221.446564h169.143795l-161.476923-224.019692z m-97.936411-110.697026H149.714051V155.017846h99.433026a98.461538 98.461538 0 0 1 97.93641 98.934154c0.498872 54.350769-44.110769 98.409026-98.461538 98.409026z m890.407385 85.595897a62.464 62.464 0 0 1 62.542769-62.542769 62.910359 62.910359 0 0 1 62.542769 61.518769v250.144821h149.661539v-261.435077c0-90.715897-64.065641-167.095795-149.661539-184.530051a197.001846 197.001846 0 0 0-38.964512-4.096 185.107692 185.107692 0 0 0-85.595898 20.48v-17.408h-150.186667v446.989128h149.661539v-249.120821z m1562.939077-92.265025c53.326769-29.223385 89.718154-85.097026 89.718154-150.186667a191.015385 191.015385 0 0 0-12.813129-64.091897 171.086769 171.086769 0 0 0-148.164923-106.102154v-0.525128h-208.108307v657.171692h238.88082v-1.050256c85.097026-10.24 150.711795-81.998769 150.711795-169.143795 0-72.782769-45.633641-139.421538-110.22441-166.071795zM2458.965333 58.131692h160.426667c76.905026 0 138.948923 62.043897 138.948923 137.898667 0.498872 75.881026-62.043897 137.373538-138.922667 137.373538h-160.951794V58.131692h0.525128z m180.95918 591.031795h-181.458051V365.699282h187.602051v0.525128c74.331897 3.072 133.277538 70.734769 133.277538 145.066667 0 76.379897-62.542769 137.87241-139.421538 137.87241zM2154.994872 19.167179h139.421538V687.130256h-139.421538V19.167179zM1873.578667 358.006154c54.350769 2.573128 86.121026 17.959385 96.886154 48.180513 1.024 2.074256 1.024 4.122256 1.024 6.170256a256.840205 256.840205 0 0 0-95.363283-18.458256c-110.697026 0-199.890051 68.161641-199.890051 152.759795 0 84.046769 89.691897 152.759795 199.890051 152.759794a250.827487 250.827487 0 0 0 95.363283-18.458256v6.669128h132.253538v-248.648205c5.12-126.582154-81.526154-208.108308-220.947692-208.108308-73.281641 0-139.946667 28.199385-185.554052 72.809026l58.945641 96.886154c23.578256-25.626256 67.662769-44.609641 117.366154-42.535385z m97.411282 209.657436c-15.386256 16.410256-48.705641 27.674256-87.171282 27.674256-53.300513 0-96.886154-22.055385-96.886154-49.204513 0-27.175385 43.585641-49.204513 96.886154-49.204512 38.465641 0 71.785026 11.290256 87.171282 28.199384v42.535385zM1487.556923 687.130256h139.421539V360.054154h63.566769V237.042872h-63.540513V47.891692l-139.447795 96.886154v92.265026h-61.518769v123.011282h61.518769V687.130256z m1566.536205-422.912h-14.362256c-56.398769 1.050256-117.891282 25.127385-148.663795 52.30277l24.602256 30.247384c33.844513-25.626256 82.523897-42.036513 136.349539-42.036513 72.809026 0 122.51241 31.770256 148.663795 73.80677 7.693128 12.813128 11.789128 25.127385 11.789128 39.988512v54.849642c-36.391385-33.345641-93.814154-54.350769-158.903795-54.35077-109.699282 0-199.391179 62.043897-199.391179 137.898667 0 76.406154 89.193026 137.898667 199.391179 137.898667 64.590769 0 121.987282-21.530256 158.903795-54.35077v42.036513h40.487384v-279.368205c-2.546872-77.403897-90.217026-138.89641-198.866051-138.89641z m158.903795 313.737847c-6.669128 18.957128-21.031385 35.866256-42.036513 50.228512-31.271385 20.48-72.809026 31.770256-116.36841 31.770257-44.084513 0-85.595897-11.290256-116.36841-31.770257-29.722256-19.482256-45.607385-44.609641-45.607385-71.259897s16.384-51.777641 45.607385-71.233641c31.271385-20.532513 72.809026-31.796513 116.36841-31.796513 44.084513 0 85.595897 11.290256 116.36841 31.770257 21.530256 13.863385 35.866256 31.271385 42.036513 49.230769v43.060513z m423.410872-300.898462l-151.236923 359.318974-150.186667-358.294974-40.487384-1.050256 171.218051 406.501743-63.566769 151.236923 39.463384 0.525128L3675.897436 277.005128h-39.463385z" fill="#000000" p-id="21355"></path><path d="M864.62359 666.650256a236.097641 236.097641 0 0 0 115.922051-172.32082l-103.082667-29.722257a128.105026 128.105026 0 0 1-62.569025 94.864411 126.135795 126.135795 0 0 1-141.02318-9.741128l203.067077-117.444924 91.293539-52.302769a214.987487 214.987487 0 0 0-17.434257-36.417641 233.734564 233.734564 0 0 0-35.892513-47.182769c-73.859282-75.355897-192.328205-94.86441-287.691487-39.988513-113.348923 65.115897-151.814564 210.261333-86.67241 323.085128 66.166154 113.847795 211.285333 152.287179 324.109128 87.171282z m-179.462564-310.770871a107.467487 107.467487 0 0 1 116.394666 6.669128l-169.222564 97.411282a107.651282 107.651282 0 0 1 52.827898-104.08041z" fill="#000000" p-id="21356"></path><path d="M341.333333 964.161641v-147.035897h8.612103l107.336205 112.167384v-111.537231h17.014154v147.035898h-7.771898l-107.756307-111.537231v110.907077H341.333333zM502.048821 817.755897h18.274461l55.873641 113.191385 56.713846-113.217641h18.274462l-72.467693 147.035897h-5.251282l-71.417435-147.035897zM680.408615 817.729641h33.608206c12.708103-0.341333 25.416205 0.262564 38.019282 1.890462 9.242256 1.706667 17.723077 6.170256 24.365948 12.813128 6.091487 6.564103 9.399795 15.228718 9.242257 24.155897 0.105026 7.483077-2.100513 14.808615-6.301539 21.005128a42.010256 42.010256 0 0 1-18.484513 13.653334c-10.765128 3.518359-22.055385 5.093744-33.398153 4.621128l60.70482 68.056615h-19.74482l-60.704821-68.056615h-9.452308v68.056615h-16.804102l-1.050257-146.195692z m16.804103 14.283487v49.782154h29.197128c8.402051 0.393846 16.856615-0.525128 24.996103-2.730667a24.576 24.576 0 0 0 12.603077-9.032205 22.921846 22.921846 0 0 0 0-27.096615 26.912821 26.912821 0 0 0-12.182975-8.612103 84.020513 84.020513 0 0 0-25.416205-2.310564h-29.197128zM952.635077 817.729641h33.398154c12.681846-0.341333 25.416205 0.262564 38.019282 1.890462 9.242256 1.627897 17.77559 6.117744 24.365949 12.813128 6.196513 6.485333 9.609846 15.176205 9.452307 24.155897 0.105026 7.53559-2.179282 14.887385-6.51159 21.005128-4.726154 6.249026-11.132718 11.001436-18.484512 13.653334a93.630359 93.630359 0 0 1-33.188103 4.621128l60.494769 68.056615h-21.005128l-60.70482-67.846564h-9.452308v68.056616h-16.804103l0.420103-146.405744z m16.804102 14.283487v49.782154h30.037334c8.402051 0.36759 16.830359-0.525128 24.996102-2.730667 4.988718-1.68041 9.399795-4.831179 12.603077-9.032205a22.475487 22.475487 0 0 0 4.411077-13.653333 21.005128 21.005128 0 0 0-4.621128-13.443282 25.206154 25.206154 0 0 0-11.972923-8.612103 86.147282 86.147282 0 0 0-25.416205-2.310564h-30.037334zM1196.242051 928.295385l13.443282 6.091487c-3.912205 7.062974-9.110974 13.312-15.333743 18.484513a61.597538 61.597538 0 0 1-19.744821 10.502564 73.964308 73.964308 0 0 1-24.576 3.570872 64.091897 64.091897 0 0 1-47.681641-17.224206 55.033436 55.033436 0 0 1-17.224205-39.279589 52.512821 52.512821 0 0 1 14.70359-36.758975 63.015385 63.015385 0 0 1 49.362051-21.005128 65.536 65.536 0 0 1 50.83241 21.005128c9.189744 10.161231 14.073436 23.473231 13.653334 37.179077H1101.718974a40.487385 40.487385 0 0 0 13.863385 30.877539c9.137231 8.086974 21.005128 12.366769 33.188103 11.972923 6.275282 0.026256 12.498051-0.892718 18.484512-2.730667 5.461333-1.837949 10.633846-4.46359 15.333744-7.771897 5.251282-4.279795 9.87241-9.294769 13.653333-14.913641z m0-29.197129a46.631385 46.631385 0 0 0-9.452307-17.854359 43.454359 43.454359 0 0 0-16.173949-10.712615 56.083692 56.083692 0 0 0-21.005128-3.990974 49.362051 49.362051 0 0 0-31.507693 10.292513c-7.036718 5.750154-12.182974 13.522051-14.703589 22.265435h92.842666zM1243.766154 855.775179h15.937641v19.53477c5.750154-6.984205 12.891897-12.629333 21.005128-16.594052 7.929436-3.807179 16.620308-5.750154 25.416205-5.671384 8.664615-0.183795 17.250462 1.995487 24.786051 6.301538 6.957949 3.675897 12.550564 9.504821 15.963898 16.594052 4.148513 10.318769 5.933949 21.451487 5.251282 32.557948v55.66359h-16.594051v-51.672615a105.025641 105.025641 0 0 0 0-24.996103 27.070359 27.070359 0 0 0-10.712616-16.173949 35.708718 35.708718 0 0 0-21.005128-5.461333c-9.347282-0.026256-18.458256 2.914462-26.046359 8.402051a40.749949 40.749949 0 0 0-15.123692 21.005129 127.159795 127.159795 0 0 0-2.310564 29.407179v39.699692h-15.963898l-0.630154-108.596513zM1400.648205 815.681641h15.963898v40.119795h22.265435v12.182974h-22.265435v96.203487h-15.963898v-96.203487h-21.005128v-12.182974h21.005128v-40.119795zM1590.324513 855.748923v108.386462h-15.963898v-18.694564c-6.301538 6.905436-13.942154 12.419282-22.475487 16.173948a69.710769 69.710769 0 0 1-27.516718 5.251282 65.509744 65.509744 0 0 1-45.161025-16.594051 52.512821 52.512821 0 0 1-17.644308-40.539897 51.908923 51.908923 0 0 1 18.904615-40.119795 70.813538 70.813538 0 0 1 73.307898-10.922667c8.192 3.990974 15.386256 9.819897 21.005128 17.014154v-21.005128l15.543795 1.050256z m-63.015385 10.712615c-8.612103-0.078769-17.092923 1.837949-24.786051 5.671385a47.944205 47.944205 0 0 0-18.06441 16.173949 39.936 39.936 0 0 0-6.721641 21.005128c0.210051 7.53559 2.625641 14.834872 6.931692 21.005128 4.46359 6.957949 10.686359 12.603077 18.06441 16.384 7.561846 3.780923 15.911385 5.723897 24.365949 5.671385 8.218256 0.210051 16.384-1.365333 23.945846-4.621128a42.010256 42.010256 0 0 0 18.06441-15.753847 39.647179 39.647179 0 0 0 6.301539-22.055384 40.329846 40.329846 0 0 0-14.073436-31.507692A51.462564 51.462564 0 0 0 1526.258872 866.461538h1.050256zM1623.958974 813.948718h15.963898v150.186667h-15.963898V813.948718zM1797.645128 964.161641l24.155898-147.035897h2.730666l68.476718 120.149333 67.846564-120.149333h2.520616l24.365948 147.035897h-16.594051l-16.594051-105.025641-59.444513 105.025641h-4.411077l-60.284718-105.025641-16.594051 105.025641h-16.173949zM2142.733128 855.748923v108.386462h-15.753846v-18.694564a67.373949 67.373949 0 0 1-22.685538 16.173948 69.106872 69.106872 0 0 1-27.516718 5.251282 65.509744 65.509744 0 0 1-45.161026-16.594051 52.512821 52.512821 0 0 1-18.694564-40.539897 51.882667 51.882667 0 0 1 18.904615-40.119795 70.813538 70.813538 0 0 1 73.307898-10.922667 63.015385 63.015385 0 0 1 21.005128 17.014154v-21.005128l16.594051 1.050256z m-64.065641 10.712615c-8.585846-0.078769-17.066667 1.837949-24.786051 5.671385a47.917949 47.917949 0 0 0-18.06441 16.173949 39.725949 39.725949 0 0 0-6.51159 21.005128c0.157538 7.509333 2.494359 14.808615 6.721641 21.005128 4.46359 6.957949 10.712615 12.603077 18.06441 16.384 7.561846 3.780923 15.911385 5.723897 24.365949 5.671385 8.585846 0.393846 17.119179-1.181538 24.996102-4.621128a42.010256 42.010256 0 0 0 18.064411-15.753847c4.227282-6.564103 6.432821-14.230974 6.301538-22.055384a40.329846 40.329846 0 0 0-14.073436-31.507692A51.462564 51.462564 0 0 0 2078.667487 866.461538zM2178.678154 855.775179h16.173949v19.53477c5.671385-7.036718 12.865641-12.708103 21.005128-16.594052a57.764103 57.764103 0 0 1 25.416205-5.671384c8.664615-0.183795 17.250462 1.995487 24.786051 6.301538 6.905436 3.72841 12.498051 9.531077 15.963898 16.594052 4.148513 10.318769 5.933949 21.451487 5.251282 32.557948v55.66359h-16.173949v-51.672615a109.410462 109.410462 0 0 0-1.68041-24.996103 27.096615 27.096615 0 0 0-10.712616-16.173949 36.128821 36.128821 0 0 0-21.005128-5.461333 43.900718 43.900718 0 0 0-26.046359 8.402051 38.465641 38.465641 0 0 0-15.123692 21.005129 116.053333 116.053333 0 0 0-2.310564 29.407179v39.699692h-16.173949l0.630154-108.596513zM2445.889641 855.775179v108.386462h-15.753846v-18.694564a67.426462 67.426462 0 0 1-22.685539 16.173949c-8.664615 3.597128-17.933128 5.382564-27.306666 5.251282a65.115897 65.115897 0 0 1-45.161026-16.594052 52.565333 52.565333 0 0 1 0-80.659692c12.603077-10.975179 28.882051-16.909128 45.581128-16.594051 9.557333-0.157538 19.009641 1.759179 27.72677 5.671384a63.015385 63.015385 0 0 1 21.005128 17.014154v-21.005128l16.594051 1.050256z m-63.015385 10.712616a53.563077 53.563077 0 0 0-24.576 5.671384c-7.351795 3.675897-13.574564 9.268513-18.06441 16.173949a39.909744 39.909744 0 0 0-6.721641 21.005128c0.262564 7.483077 2.573128 14.756103 6.721641 21.005129 4.46359 6.931692 10.712615 12.603077 18.06441 16.384 7.614359 3.780923 16.042667 5.723897 24.576 5.671384 8.218256 0.210051 16.410256-1.365333 23.945847-4.621128 7.456821-3.413333 13.784615-8.900923 18.274461-15.753846 4.227282-6.564103 6.406564-14.257231 6.301539-22.055385a40.539897 40.539897 0 0 0-14.283488-31.507692A51.042462 51.042462 0 0 0 2381.824 866.461538h1.050256zM2589.302154 855.69641h15.963897v86.331077c0.603897 11.290256-0.892718 22.633026-4.411077 33.398154-4.096 9.924923-11.526564 18.116923-21.005128 23.105641a82.786462 82.786462 0 0 1-37.599179 7.981949 94.418051 94.418051 0 0 1-28.777026-3.990975 60.494769 60.494769 0 0 1-21.005128-10.502564 63.015385 63.015385 0 0 1-14.70359-19.324718h17.434256a42.010256 42.010256 0 0 0 18.274462 15.753847 65.115897 65.115897 0 0 0 27.936821 5.251282c9.504821 0.210051 18.957128-1.575385 27.726769-5.251282 6.564103-2.783179 12.104205-7.483077 15.963897-13.443283 3.754667-8.060718 5.408821-16.961641 4.83118-25.836307v-5.671385c-5.802667 6.564103-12.970667 11.815385-21.005129 15.333744a75.198359 75.198359 0 0 1-60.074666-2.100513 57.580308 57.580308 0 0 1-23.315692-21.005128 48.311795 48.311795 0 0 1-8.402052-27.516718c0-10.029949 2.993231-19.849846 8.612103-28.146872a59.864615 59.864615 0 0 1 23.735795-21.005128c9.977436-4.988718 20.978872-7.588103 32.137846-7.561846 8.927179-0.078769 17.77559 1.627897 26.046359 5.04123 8.795897 3.912205 16.725333 9.557333 23.315692 16.594052l-1.68041-17.434257z m-47.261539 10.712616a56.871385 56.871385 0 0 0-25.206153 5.671384 46.001231 46.001231 0 0 0-18.484513 15.963898 39.043282 39.043282 0 0 0-6.51159 21.005128 36.758974 36.758974 0 0 0 13.653333 29.407179 60.310974 60.310974 0 0 0 71.207385 0 38.045538 38.045538 0 0 0 13.443282-30.457436 39.095795 39.095795 0 0 0-6.301538-21.005128 39.699692 39.699692 0 0 0-17.434257-15.123692 53.956923 53.956923 0 0 0-24.365949-5.461333zM2744.556308 928.295385l13.653333 6.091487c-3.990974 7.089231-9.268513 13.338256-15.543795 18.484513-5.77641 4.726154-12.419282 8.270769-19.534769 10.502564a73.938051 73.938051 0 0 1-24.576 3.570872 62.962872 62.962872 0 0 1-47.681641-17.224206 54.088205 54.088205 0 0 1-17.224205-39.279589 53.142974 53.142974 0 0 1 14.493538-36.758975 63.067897 63.067897 0 0 1 49.572103-21.005128 65.90359 65.90359 0 0 1 50.83241 21.005128c9.084718 10.213744 13.96841 23.499487 13.653333 37.179077h-111.957333a40.566154 40.566154 0 0 0 13.863385 30.877539c9.058462 8.034462 20.84759 12.340513 32.978051 11.972923 6.249026 0.052513 12.498051-0.892718 18.484513-2.730667 5.48759-1.785436 10.660103-4.411077 15.333743-7.771897 5.303795-4.201026 9.924923-9.242256 13.653334-14.913641z m0-29.197129a46.946462 46.946462 0 0 0-9.242257-17.854359 45.581128 45.581128 0 0 0-16.173948-10.712615 56.136205 56.136205 0 0 0-21.005129-3.990974 49.572103 49.572103 0 0 0-31.717743 10.292513 45.71241 45.71241 0 0 0-14.493539 22.265435h92.632616zM2792.001641 855.775179h15.963897v18.904616a59.076923 59.076923 0 0 1 17.224206-15.123692c7.850667-4.306051 16.672821-6.564103 25.626256-6.51159 5.881436-0.052513 11.736615 1.024 17.224205 3.150769 4.909949 1.811692 9.399795 4.594872 13.233231 8.192 3.885949 4.253538 6.879179 9.268513 8.822154 14.70359 5.198769-8.192 12.419282-14.834872 21.005128-19.324718 7.903179-4.437333 16.777846-6.747897 25.836308-6.721641 7.929436-0.157538 15.753846 1.811692 22.685538 5.671384 6.485333 3.623385 11.63159 9.189744 14.70359 15.963898 3.702154 9.714872 5.356308 20.059897 4.831179 30.457436v59.02441h-16.384v-58.394256a66.034872 66.034872 0 0 0-2.940718-23.945847 20.926359 20.926359 0 0 0-9.662359-10.502564 31.875282 31.875282 0 0 0-16.594051-3.990974 39.463385 39.463385 0 0 0-21.005128 5.881436 34.500923 34.500923 0 0 0-14.073436 15.963897 89.508103 89.508103 0 0 0-4.411077 33.188103v42.010256h-16.173949v-55.663589a83.862974 83.862974 0 0 0-2.730666-26.676513 20.952615 20.952615 0 0 0-9.872411-11.132718 30.037333 30.037333 0 0 0-16.594051-4.201026 40.749949 40.749949 0 0 0-21.005128 5.671385 38.308103 38.308103 0 0 0-14.283487 15.753846c-3.544615 9.662359-5.12 19.954872-4.621128 30.247385v45.791179h-15.963898l-0.840205-108.386462zM3116.950974 928.295385l13.443282 6.091487c-3.833436 7.089231-9.058462 13.390769-15.333743 18.484513a62.857846 62.857846 0 0 1-19.534769 10.502564 76.064821 76.064821 0 0 1-24.786052 3.570872 62.962872 62.962872 0 0 1-47.471589-17.224206 54.377026 54.377026 0 0 1-17.224206-39.279589 53.248 53.248 0 0 1 14.493539-36.758975 63.225436 63.225436 0 0 1 49.362051-21.005128 65.483487 65.483487 0 0 1 50.83241 21.005128c9.163487 10.187487 14.125949 23.473231 13.863385 37.179077h-112.167385a42.141538 42.141538 0 0 0 13.863385 30.877539c9.163487 8.034462 21.005128 12.340513 33.188103 11.972923 6.275282 0.026256 12.498051-0.892718 18.484512-2.730667 5.48759-1.785436 10.660103-4.411077 15.333744-7.771897 5.330051-4.201026 9.951179-9.242256 13.653333-14.913641z m0-29.197129a40.277333 40.277333 0 0 0-25.626256-28.566974 56.031179 56.031179 0 0 0-21.005128-3.990974 49.362051 49.362051 0 0 0-31.507693 10.292513 44.635897 44.635897 0 0 0-14.493538 22.265435h92.632615zM3164.422564 855.775179h15.963898v19.508513c5.750154-6.957949 12.891897-12.603077 21.005128-16.567795 7.929436-3.833436 16.620308-5.77641 25.416205-5.671384 8.690872-0.157538 17.224205 2.021744 24.786051 6.301538 6.879179 3.807179 12.419282 9.58359 15.963898 16.594052 3.964718 10.371282 5.671385 21.451487 5.04123 32.557948v55.66359h-15.963897v-51.672615a122.617436 122.617436 0 0 0-1.68041-25.022359 26.99159 26.99159 0 0 0-10.712616-16.147693 36.102564 36.102564 0 0 0-21.005128-5.487589 44.504615 44.504615 0 0 0-26.25641 8.402051 40.723692 40.723692 0 0 0-15.123692 21.005128 128.472615 128.472615 0 0 0-2.310565 29.40718v39.699692h-15.963897l0.840205-108.596513zM3321.304615 815.681641h16.173949v40.119795h22.055385v12.182974h-22.055385v96.203487h-16.173949v-96.203487h-21.005128v-12.182974h21.005128v-40.119795z" fill="#000000" p-id="21357"></path></svg>