<?xml version="1.0" encoding="UTF-8"?>
<svg id="_图层_1" data-name="图层_1" xmlns="http://www.w3.org/2000/svg" version="1.1" viewBox="0 0 160 160">
  <!-- Generator: Adobe Illustrator 29.5.0, SVG Export Plug-In . SVG Version: 2.1.0 Build 137)  -->
  <path fill="#333" d="M28.21,80.78c.49,0,.73.61.73,1.83,0,1.85-.86,3.57-2.58,5.18-1.72,1.61-3.69,2.41-5.91,2.41-1.42,0-2.79-.37-4.11-1.11-2.81-1.62-4.22-4.45-4.22-8.48,0-2.85.73-5.63,2.19-8.37,2.01-3.73,4.9-6.69,8.67-8.87,3.77-2.18,7.44-3.27,11.01-3.27,2.6,0,4.74.61,6.4,1.83,1.87,1.37,2.81,3.4,2.81,6.1,0,3.44-1.56,8.82-4.69,16.16-3.12,7.34-4.69,11.48-4.69,12.44,0,.29.09.39.26.28.9-.63,5.04-5.64,12.42-15.05,7.38-9.4,12.5-15.21,15.38-17.43,2.57-2.03,4.71-3.56,6.43-4.57,1.72-1.02,3.48-1.52,5.28-1.52.49,0,.85.02,1.09.06.94.07,1.41.59,1.41,1.55,0,.48-.16.72-.47.72-.04,0-.28-.08-.73-.25-.45-.17-.83-.25-1.15-.25-4.86,0-11.4,4.67-19.63,14.02-3.09,3.51-6.85,8.24-11.27,14.19-4.43,5.95-7.04,9.16-7.84,9.64-2.81,1.7-4.39,2.55-4.74,2.55-.1,0-.16-.19-.16-.55,0-1.22.97-4.32,2.92-9.31.8-1.92,1.96-4.8,3.49-8.65l2.4-7.48c.83-2.51,1.25-4.34,1.25-5.49,0-2.55-.69-4.49-2.08-5.82-1.39-1.33-3.38-2-5.99-2s-5.4.98-8.38,2.94c-3.23,2.22-5.64,4.95-7.24,8.2-1.6,3.25-2.4,6-2.4,8.26s.43,4.03,1.3,5.32c1.42,2.11,3.31,3.16,5.67,3.16,1.8,0,3.4-.64,4.79-1.91,1.39-1.28,2.08-2.89,2.08-4.85,0-.41-.04-.78-.13-1.11-.09-.33.04-.5.39-.5Z"/>
  <path fill="#333" d="M51.69,97.35c-.38,0-.73-.06-1.04-.17-2.22-.67-3.33-2-3.33-3.99,0-2.59,1.53-5.58,4.58-8.98,3.05-3.4,5.8-5.1,8.23-5.1.8,0,1.45.23,1.95.69.5.46.75,1.03.75,1.69,0,2.07-1.47,4.05-4.4,5.93-2.93,1.88-5.32,2.83-7.16,2.83-.28,0-.52-.04-.73-.11-.52,1-.78,2.05-.78,3.16,0,1.92.86,2.88,2.58,2.88s3.95-1.24,6.69-3.71c2.12-1.81,3.92-3.73,5.41-5.76.31-.44.58-.67.81-.67s.34.11.34.33-.14.54-.42.94c-1.87,2.62-4.13,4.95-6.77,6.98-2.64,2.03-4.88,3.05-6.72,3.05ZM61.53,81.39c0-.44-.44-.67-1.33-.67s-2.14.72-3.77,2.16c-2.19,1.92-3.89,3.94-5.1,6.04.21.07.43.11.68.11,1.32,0,3.08-.75,5.28-2.24,2.2-1.5,3.58-3.13,4.14-4.91.07-.18.1-.35.1-.5Z"/>
  <path fill="#333" d="M73.04,96.91c-2.6,0-3.9-1.53-3.9-4.6,0-1.55.38-3.25,1.15-5.1.76-1.85,1.6-3.4,2.5-4.66-.17.04-.4.06-.68.06-.83,0-1.53-.63-2.08-1.88l-3.85,5.32c-2.15,2.85-3.4,4.27-3.75,4.27-.17,0-.26-.07-.26-.22,0-.37.29-.91.89-1.61,3.02-3.73,5.15-6.89,6.4-9.48.8-3.21,1.8-4.82,3.02-4.82.8,0,1.2.37,1.2,1.11s-.43,1.68-1.3,2.83l-1.25,1.77c0,.78.54,1.16,1.61,1.16.62,0,1.32-.24,2.08-.72l1.35-.89c.07-.04.24-.06.52-.06s.57.19.88.55c.31.37.42.7.31,1l-3.59,4.82c-2.22,3.03-3.33,5.42-3.33,7.18s.76,2.63,2.29,2.63,3.56-.91,5.88-2.72c1.39-1.07,2.66-2.27,3.8-3.6,1.08-1.33,1.67-2,1.77-2,.24,0,.37.14.37.42s-.16.6-.47.97l-1.67,2c-.94,1.04-1.98,2.03-3.12,2.99-2.74,2.18-5,3.27-6.77,3.27Z"/>
  <path fill="#333" d="M92.51,95.8c-1.01.63-2.25.94-3.72.94s-2.6-.52-3.38-1.55c-.78-1.03-1.45-2.68-2-4.93-.62.67-1.06,1-1.3,1-.17,0-.26-.13-.26-.39s.09-.48.26-.67c1.15-1.51,3.09-3.69,5.83-6.54l6.56-6.54c1.87-1.88,2.98-2.83,3.33-2.83,1.11,0,1.67.44,1.67,1.33,0,.44-.17.88-.5,1.3-.33.43-.57.76-.73,1-.16.24-.32.47-.5.69-.62,1.15-1.26,3.51-1.9,7.09-.64,3.58-1.14,6.08-1.48,7.48,2.88-.04,5.85-2.03,8.9-5.99.35-.37.61-.55.78-.55s.26.12.26.36-.16.56-.47.97c-2.01,2.51-3.89,4.27-5.62,5.27-1.04.55-2.39,1.02-4.06,1.39l-1.67,1.16ZM85.48,89.65c0,1.26.39,2.28,1.17,3.08s1.66,1.19,2.63,1.19,1.72-.2,2.24-.61c.69-.41,1.38-2.11,2.06-5.1.68-2.99,1.08-5.63,1.22-7.93l.21-1.88c-1.91,1.52-3.95,3.47-6.12,5.88-2.17,2.4-3.29,3.99-3.36,4.77-.04.22-.05.43-.05.61Z"/>
  <path fill="#333" d="M103.5,97.24c-1.77,0-2.66-1.22-2.66-3.66,0-2,1.02-4.76,3.07-8.29,2.05-3.53,3.7-5.31,4.95-5.35.35,0,.74.15,1.17.44.43.3.65.59.65.89-.17.26-.38.55-.62.86-.24.31-.5.66-.78,1.03-.28.37-.66.9-1.15,1.58-.49.68-.96,1.34-1.41,1.97-2.6,3.58-3.91,6.05-3.91,7.4s.43,2.02,1.3,2.02c.73,0,1.72-.42,2.97-1.27,2.92-1.92,5.22-4.03,6.92-6.32.62-.85,1.05-1.28,1.28-1.28s.34.15.34.44-.4.89-1.2,1.77c-.8.89-1.43,1.59-1.9,2.11-.47.52-.79.86-.96,1.03-.17.17-.5.48-.96.94-.47.46-.83.79-1.07.97-.24.19-.59.46-1.04.83s-.85.64-1.2.8c-.35.17-.75.36-1.2.58-.73.33-1.6.5-2.6.5ZM114.4,74.55c.47.35.7.77.7,1.25s-.22.9-.65,1.25c-.43.35-.91.53-1.43.53s-1-.2-1.43-.61c-.43-.41-.65-.87-.65-1.39,0-1.03.66-1.55,1.98-1.55.52,0,1.02.18,1.48.53Z"/>
  <path fill="#333" d="M126.98,84.88c0,1.29-1.16,3.46-3.49,6.48-2.74,3.58-5.08,5.38-7.03,5.38h-.83c-.9,0-1.61-.5-2.13-1.5-.42-.7-.62-1.48-.62-2.33,0-2.22,1.52-5.33,4.56-9.34,3.04-4.01,5.49-6.01,7.37-6.01,1.77,0,2.66,1,2.66,2.99,0,.52-.09,1.18-.26,2,.03.11.36.17.99.17s1.58-.35,2.86-1.05c-.04.63-1.41,1.53-4.11,2.72.03.15.05.31.05.5ZM123.59,82c-1.18,0-2.85,1.48-5.02,4.43-2.17,2.96-3.25,5.14-3.25,6.54s.42,2.11,1.25,2.11c1.49,0,3.38-1.44,5.67-4.32,2.29-2.88,3.44-4.95,3.44-6.21-.56-.33-1.25-1.18-2.08-2.55Z"/>
  <path fill="#333" d="M138.64,96.91c-2.6,0-3.91-1.53-3.91-4.6,0-1.55.38-3.25,1.15-5.1.76-1.85,1.6-3.4,2.5-4.66-.17.04-.4.06-.68.06-.83,0-1.53-.63-2.08-1.88l-3.85,5.32c-2.15,2.85-3.4,4.27-3.75,4.27-.17,0-.26-.07-.26-.22,0-.37.29-.91.89-1.61,3.02-3.73,5.15-6.89,6.4-9.48.8-3.21,1.8-4.82,3.02-4.82.8,0,1.2.37,1.2,1.11s-.43,1.68-1.3,2.83l-1.25,1.77c0,.78.54,1.16,1.61,1.16.62,0,1.32-.24,2.08-.72l1.35-.89c.07-.04.24-.06.52-.06s.57.19.88.55c.31.37.42.7.31,1l-3.59,4.82c-2.22,3.03-3.33,5.42-3.33,7.18s.76,2.63,2.29,2.63,3.56-.91,5.88-2.72c1.39-1.07,2.66-2.27,3.8-3.6,1.08-1.33,1.67-2,1.77-2,.24,0,.36.14.36.42s-.16.6-.47.97l-1.67,2c-.94,1.04-1.98,2.03-3.12,2.99-2.74,2.18-5,3.27-6.77,3.27Z"/>
</svg>